# xmcd
#
# Track frame offsets:
#	150
#	13016
#	24443
#	35219
#	46632
#	57371
#	71905
#	87202
#	99735
#	110502
#	125430
#	138658
#	149980
#	162094
#	174735
#	188440
#	200478
#	212276
#	224808
#	237686
#	251905
#	264612
#	275929
#	289473
#	300712
#
# Disc length: 4311 seconds
#
# Revision: 0
# Processed by: cddbd v1.5.1PL2 Copyright (c) Steve Scherf et al.
# Submitted via: EasyCDDAExtractor 9.0.0.1
#
DISCID=9910d519
DTITLE=Big Joe Turner - Shout, Rattle And Roll [CD4]
DYEAR=2005
DGENRE=R&B
TTITLE0=Jumpin' At The Jubilee
TTITLE1=Story To Tell
TTITLE2=Jumpin' Tonight (Midnight Rockin')
TTITLE3=Lucille
TTITLE4=Love My Baby (Little Bitty Baby)
TTITLE5=After My Laughter Came Tears
TTITLE6=Chains Of Love
TTITLE7=The Chill Is On
TTITLE8=Bump Miss Suzie
TTITLE9=I'll Never Stop Loving You
TTITLE10=Sweet Sixteen
TTITLE11=Don't You Cry
TTITLE12=Poor Lover's Blues
TTITLE13=Baby I Still Want You
TTITLE14=Still In Love (With You)
TTITLE15=Honey Hush
TTITLE16=Crawdad Hole
TTITLE17=Oke-She-Moke-She-Pop
TTITLE18=Tv Mama
TTITLE19=You Know I Love You
TTITLE20=Married Woman
TTITLE21=Midnight Cannonball
TTITLE22=Shake Rattle And Roll
TTITLE23=Well All Right
TTITLE24=In The Evening (When The Sun Goes Down)
EXTD=
EXTT0=
EXTT1=
EXTT2=
EXTT3=
EXTT4=
EXTT5=
EXTT6=
EXTT7=
EXTT8=
EXTT9=
EXTT10=
EXTT11=
EXTT12=
EXTT13=
EXTT14=
EXTT15=
EXTT16=
EXTT17=
EXTT18=
EXTT19=
EXTT20=
EXTT21=
EXTT22=
EXTT23=
EXTT24=
PLAYORDER=
